name GIL01_fast5.mot
datacolumns 153
datarows 4
range 0.32500002 0.35000002
endheader

                time	           pelvis_tx	           pelvis_ty	           pelvis_tz	         pelvis_tilt	         pelvis_list	     pelvis_rotation	       hip_flexion_r	     hip_adduction_r	      hip_rotation_r	        knee_angle_r	       ankle_angle_r	    subtalar_angle_r	         mtp_angle_r	       hip_flexion_l	     hip_adduction_l	      hip_rotation_l	        knee_angle_l	       ankle_angle_l	    subtalar_angle_l	         mtp_angle_l	    lumbar_extension	      lumbar_bending	     lumbar_rotation	     ground_force_vx	     ground_force_vy	     ground_force_vz	     ground_force_px	     ground_force_py	     ground_force_pz	     ground_force_vx	     ground_force_vy	     ground_force_vz	     ground_force_px	     ground_force_py	     ground_force_pz	     ground_torque_x	     ground_torque_y	     ground_torque_z	     ground_torque_x	     ground_torque_y	     ground_torque_z	    ground_marker_px	    ground_marker_py	    ground_marker_pz	    ground_marker_px	    ground_marker_py	    ground_marker_pz	    ground_marker_px	    ground_marker_py	    ground_marker_pz	    ground_marker_px	    ground_marker_py	    ground_marker_pz	    ground_marker_px	    ground_marker_py	    ground_marker_pz	    ground_marker_px	    ground_marker_py	    ground_marker_pz	    ground_marker_px	    ground_marker_py	    ground_marker_pz	    ground_marker_px	    ground_marker_py	    ground_marker_pz	    ground_marker_px	    ground_marker_py	    ground_marker_pz	    ground_marker_px	    ground_marker_py	    ground_marker_pz	    ground_marker_px	    ground_marker_py	    ground_marker_pz	    ground_marker_px	    ground_marker_py	    ground_marker_pz	    ground_marker_px	    ground_marker_py	    ground_marker_pz	    ground_marker_px	    ground_marker_py	    ground_marker_pz	    ground_marker_px	    ground_marker_py	    ground_marker_pz	    ground_marker_px	    ground_marker_py	    ground_marker_pz	    ground_marker_px	    ground_marker_py	    ground_marker_pz	    ground_marker_px	    ground_marker_py	    ground_marker_pz	    ground_marker_px	    ground_marker_py	    ground_marker_pz	    ground_marker_px	    ground_marker_py	    ground_marker_pz	    ground_marker_px	    ground_marker_py	    ground_marker_pz	    ground_marker_px	    ground_marker_py	    ground_marker_pz	    ground_marker_px	    ground_marker_py	    ground_marker_pz	    ground_marker_px	    ground_marker_py	    ground_marker_pz	    ground_marker_px	    ground_marker_py	    ground_marker_pz	    ground_marker_px	    ground_marker_py	    ground_marker_pz	    ground_marker_px	    ground_marker_py	    ground_marker_pz	    ground_marker_px	    ground_marker_py	    ground_marker_pz	    ground_marker_px	    ground_marker_py	    ground_marker_pz	    ground_marker_px	    ground_marker_py	    ground_marker_pz	    ground_marker_px	    ground_marker_py	    ground_marker_pz	    ground_marker_px	    ground_marker_py	    ground_marker_pz	    ground_marker_px	    ground_marker_py	    ground_marker_pz	    ground_marker_px	    ground_marker_py	    ground_marker_pz	    ground_marker_px	    ground_marker_py	    ground_marker_pz	    ground_marker_px	    ground_marker_py	    ground_marker_pz	    ground_marker_px	    ground_marker_py	    ground_marker_pz	
          0.32500002	          0.82859600	          0.80602163	         -0.21168132	         -6.50979233	          0.72798640	         -3.62046194	          2.51153851	          7.02758646	          5.25118113	         -6.74820805	          7.99015760	          0.00000000	          0.00000000	         32.04048920	         -4.91578007	          2.98555326	        -41.35446930	         -3.63437319	          0.00000000	          0.00000000	         -1.60142481	          1.16819561	          0.68388915	          2.52344185	        303.68704900	         -4.41554812	          0.73682849	          0.00000000	         -0.19388747	          0.00000000	          0.00000000	          0.00000000	          1.19988525	          0.00000000	         -0.26343649	          0.00000000	          1.58067847	          0.00000000	          0.00000000	          0.00000000	          0.00000000	          0.76225519	          0.74308527	         -0.20725799	          0.74897051	          0.74346095	         -0.15098417	          0.75729841	          0.74241543	         -0.28102908	          0.72778398	          0.40422881	         -0.19158129	          0.90009761	          0.44596982	         -0.29779282	          0.66660053	          0.06740939	         -0.22090217	          0.80592942	          0.11447302	         -0.30754474	          0.82859600	          0.80602163	         -0.21168132	          0.82226825	          0.80681604	         -0.11287043	          0.83492368	          0.80522722	         -0.31049222	          0.67135793	          0.86064237	         -0.18644106	          0.67236543	          0.85640711	         -0.24151248	          0.72885054	          0.39762896	         -0.13698913	          0.90411669	          0.45096636	         -0.35191429	          0.73509997	          0.41486633	         -0.23576318	          0.92032796	          0.41604641	         -0.25954229	          0.65823007	          0.06575108	         -0.18438596	          0.80048591	          0.11709321	         -0.34404820	          0.66853189	          0.07117499	         -0.24557441	          0.81116587	          0.11447824	         -0.27822822	          0.70624900	          1.21900535	         -0.23229963	          0.81471109	          1.16535902	         -0.18648444	          0.81887817	          1.16640651	         -0.26237071	          0.80224496	          1.16406596	         -0.22664884	          0.83364153	          1.08304584	         -0.22363427	          0.84260690	          0.50751323	         -0.07095522	          0.98374289	          0.62182480	         -0.28237277	          0.76767206	          0.57214266	         -0.09292912	          0.89685267	          0.64457184	         -0.32382742	          0.76461256	          0.48996717	         -0.11839327	          0.93005878	          0.56366181	         -0.32688919	          0.66297144	          0.16934821	         -0.09883153	          0.85196847	          0.22982688	         -0.41681057	          0.66142499	          0.14120947	         -0.17763612	          0.82608819	          0.19653928	         -0.34461594	          0.75859207	          0.03534660	         -0.19807929	          0.88881165	          0.05408344	         -0.32125741	
          0.33333337	          0.83906543	          0.80523920	         -0.21104723	         -6.62185860	          0.95838684	         -4.13317347	          1.57674789	          6.83883572	          5.27394772	         -6.30053473	          8.31329536	          0.00000000	          0.00000000	         32.37209320	         -4.94027948	          2.46347213	        -38.00491333	         -3.41565037	          0.00000000	          0.00000000	         -1.72145247	          0.81379050	          1.30869448	          4.68582237	        310.80467279	         -6.37901642	          0.73968292	          0.00000000	         -0.19384201	          0.00000000	          0.00000000	          0.00000000	          1.20249890	          0.00000000	         -0.26371725	          0.00000000	          1.43544434	          0.00000000	          0.00000000	          0.00000000	          0.00000000	          0.77276993	          0.74235719	         -0.20805739	          0.75872099	          0.74278742	         -0.15119110	          0.76831591	          0.74184841	         -0.28114951	          0.73162925	          0.40405795	         -0.19160463	          0.91241211	          0.44586179	         -0.29683194	          0.66708589	          0.06773416	         -0.22123092	          0.83890527	          0.10769258	         -0.30669260	          0.83906543	          0.80523920	         -0.21104723	          0.83176696	          0.80595344	         -0.11219406	          0.84636384	          0.80452490	         -0.30990040	          0.68204600	          0.86012036	         -0.18773687	          0.68331623	          0.85589623	         -0.24269414	          0.73206979	          0.39750764	         -0.13699786	          0.91648340	          0.45071185	         -0.35096279	          0.74200320	          0.41451523	         -0.23602979	          0.93552417	          0.41649994	         -0.26016030	          0.65852058	          0.06616490	         -0.18475597	          0.83313453	          0.11001048	         -0.34316623	          0.66924572	          0.07144540	         -0.24585579	          0.84418589	          0.10777877	         -0.27748063	          0.71776354	          1.21847951	         -0.23171243	          0.82608634	          1.16451621	         -0.18602362	          0.83014411	          1.16528308	         -0.26245600	          0.81355351	          1.16313899	         -0.22642758	          0.84459919	          1.08199263	         -0.22318502	          0.84719265	          0.50597608	         -0.07004911	          0.99602133	          0.62254739	         -0.28177679	          0.77367836	          0.57177925	         -0.09290255	          0.90920162	          0.64497256	         -0.32359907	          0.77028841	          0.48948324	         -0.11832606	          0.94363695	          0.56453395	         -0.32675603	          0.66392231	          0.16972332	         -0.09921367	          0.87711990	          0.22598957	         -0.41601965	          0.66215765	          0.14204623	         -0.17773804	          0.85385740	          0.19085504	         -0.34360105	          0.75888526	          0.03524841	         -0.19804911	          0.92542446	          0.05306549	         -0.32091385	
          0.34166670	          0.84954703	          0.80423117	         -0.21043266	         -6.75773048	          1.08834410	         -4.59758520	          0.67111683	          6.76083708	          5.07321215	         -5.85879517	          8.61742878	          0.00000000	          0.00000000	         32.66683960	         -5.00512838	          1.82253587	        -34.53742218	         -3.33004546	          0.00000000	          0.00000000	         -1.86315203	          0.72104597	          1.94965172	          7.11725801	        318.54011382	         -8.99252916	          0.74213293	          0.00000000	         -0.19390308	          0.00000000	          0.00000000	          0.00000000	          1.20454883	          0.00000000	         -0.26402777	          0.00000000	          1.19760339	          0.00000000	          0.00000000	          0.00000000	          0.00000000	          0.78346705	          0.74152851	         -0.20876583	          0.76854545	          0.74200904	         -0.15122655	          0.77922976	          0.74098629	         -0.28109926	          0.73558384	          0.40393344	         -0.19168445	          0.92431545	          0.44523740	         -0.29570088	          0.66763842	          0.06809641	         -0.22166008	          0.87235498	          0.10153688	         -0.30590430	          0.84954703	          0.80423117	         -0.21043266	          0.84141457	          0.80500966	         -0.11157828	          0.85767949	          0.80345261	         -0.30928704	          0.69280887	          0.85943621	         -0.18910407	          0.69438964	          0.85519117	         -0.24391738	          0.73525429	          0.39742997	         -0.13707131	          0.92825419	          0.44984367	         -0.34986281	          0.74374068	          0.41486475	         -0.23576251	          0.94626051	          0.41625512	         -0.25924948	          0.65881807	          0.06663035	         -0.18524165	          0.86619157	          0.10355008	         -0.34233177	          0.67014259	          0.07192027	         -0.24611962	          0.87753296	          0.10167548	         -0.27689216	          0.72930288	          1.21779251	         -0.23115337	          0.83708912	          1.16353226	         -0.18537262	          0.84093028	          1.16425753	         -0.26181623	          0.82443380	          1.16220105	         -0.22573973	          0.85511255	          1.08091283	         -0.22256134	          0.85154486	          0.50447953	         -0.06888407	          1.00805473	          0.62247503	         -0.28162980	          0.77956027	          0.57144380	         -0.09283928	          0.92114890	          0.64463699	         -0.32360259	          0.77377278	          0.48919797	         -0.11810403	          0.95512348	          0.56392735	         -0.32649085	          0.66476524	          0.17018765	         -0.09971002	          0.90216905	          0.22248124	         -0.41521046	          0.66310638	          0.14257519	         -0.17801942	          0.88153273	          0.18560907	         -0.34248027	          0.75913197	          0.03516099	         -0.19799121	          0.96197850	          0.05284774	         -0.32044923	
          0.35000002	          0.86010325	          0.80301136	         -0.20980719	         -6.91414070	          1.11965835	         -4.99285316	         -0.23177052	          6.80476570	          4.65565348	         -5.39243507	          8.89277458	          0.00000000	          0.00000000	         32.92902374	         -5.10064554	          1.09469700	        -30.99245453	         -3.32884693	          0.00000000	          0.00000000	         -1.96945536	          0.55137253	          3.47923541	          9.14294100	        326.20069680	        -10.45378467	          0.74437170	          0.00000000	         -0.19414285	          0.00000000	          0.00000000	          0.00000000	          1.20606311	          0.00000000	         -0.26433633	          0.00000000	          1.09644470	          0.00000000	          0.00000000	          0.00000000	          0.00000000	          0.79427028	          0.74053669	         -0.20938033	          0.77852857	          0.74112278	         -0.15103996	          0.79008001	          0.73984623	         -0.28083622	          0.73962063	          0.40389496	         -0.19185978	          0.93590611	          0.44411090	         -0.29440689	          0.66828287	          0.06850711	         -0.22220993	          0.90611178	          0.09621839	         -0.30515301	          0.86010325	          0.80301136	         -0.20980719	          0.85130686	          0.80398345	         -0.11096828	          0.86889958	          0.80203927	         -0.30864608	          0.70366853	          0.85859448	         -0.19046789	          0.70559049	          0.85430568	         -0.24514779	          0.73839384	          0.39742687	         -0.13725522	          0.93953890	          0.44838980	         -0.34861708	          0.75640470	          0.41404882	         -0.23656619	          0.95734310	          0.41542515	         -0.25872105	          0.65913069	          0.06716517	         -0.18586867	          0.89951324	          0.09790687	         -0.34152070	          0.67105848	          0.07269672	         -0.24666391	          0.91096175	          0.09626162	         -0.27623847	          0.74089062	          1.21688890	         -0.23064388	          0.84903038	          1.16228878	         -0.18509981	          0.85133231	          1.16295278	         -0.26148844	          0.83555794	          1.16098976	         -0.22514465	          0.86593813	          1.07956934	         -0.22253065	          0.85570848	          0.50302225	         -0.06751534	          1.01975346	          0.62158716	         -0.28188336	          0.78530818	          0.57110262	         -0.09274680	          0.93312740	          0.64355958	         -0.32408434	          0.78135341	          0.48897016	         -0.11799799	          0.96678591	          0.56283414	         -0.32657430	          0.66545635	          0.17077662	         -0.10036349	          0.92709851	          0.21943793	         -0.41435698	          0.66427422	          0.14309256	         -0.17869999	          0.90918213	          0.18086568	         -0.34150362	          0.75935942	          0.03509861	         -0.19794174	          0.99837726	          0.05358033	         -0.31981343	
